# xmcd CD database file
#
# Track frame offsets:
#	150
#	37261
#	66470
#	91856
#	143190
#	190875
#	227907
#
# Disc length: 3812 seconds
#
# Revision: 0
# Processed by: cddbd v1.5.2PL0 Copyright (c) Steve Scherf et al.
# Submitted via: CDex 1.70beta1
#
DISCID=650ee207
DTITLE=Pat Metheny - Bright Size Life Trio, LIVE! (Aug5 2007 remaster)
DYEAR=2007
DGENRE=Jazz
TTITLE0=01 - Round Trip_Broadway Blues
TTITLE1=02 - Bright Size Life
TTITLE2=03 - Unity Village
TTITLE3=04 - All The Things You Are
TTITLE4=05 - Portrait of Tracy - Continuum
TTITLE5=06 - Omaha Celebration
TTITLE6=07 - All Is You
EXTD=YEAR: 2007
EXTT0=
EXTT1=
EXTT2=
EXTT3=
EXTT4=
EXTT5=
EXTT6=
PLAYORDER=
